<svg xmlns="http://www.w3.org/2000/svg" width="48" height="48" fill="none" xmlns:v="https://vecta.io/nano"><path d="M24 37.058v-6.53l-5.654 3.265v-6.53l-5.654 3.265v-8.571l-9.476-5.493v19.535L24 48l16.897-9.755-9.458-5.486L24 37.058z" fill="url(#A)"/><path d="M24 0L7.071 9.777l9.458 5.482L24 10.942v6.53l5.654-3.265v6.53l5.654-3.265v8.608l9.476 5.497V12.001L24 0z" fill="url(#B)"/><path d="M18.346 20.737L24 17.472v-6.53l-11.308 6.53v13.056l5.654-3.265v-6.526zm9.381 9.868v-4.456l3.859-2.228 3.727 2.158v-8.608l-11.308 6.526v13.06l7.439-4.298-3.716-2.155z" fill="#000"/><defs><linearGradient id="A" x1="22.062" y1="27.344" x2="13.604" y2="41.998" gradientUnits="userSpaceOnUse"><stop stop-color="#7790e2"/><stop offset="1" stop-color="#486ddc"/></linearGradient><linearGradient id="B" x1="34.396" y1="6.002" x2="25.92" y2="20.686" gradientUnits="userSpaceOnUse"><stop stop-color="#7790e2"/><stop offset="1" stop-color="#486ddc"/></linearGradient></defs></svg>